PathFileType	4	(X/Y/Z)	C:/Users/dbak576/Desktop/Duncan Bakke Modelling Files/H20s1/Static_H20s1.trc	
DataRate	CameraRate	NumFrames	NumMarkers	Units	OrigDataRate	OrigDataStartFrame	OrigNumFrames	
200.00	200.00	5	61	mm	200.00	885	672	
Frame#	Time	LFHD			RFHD			LBHD			RBHD			C7			T10			CLAV			STRN			RBack			LASI			RASI			LPSI			RPSI			RACR1			RUA1			RElbow			RElbowM			RFA1			RWRR			RWRU			RCAR			LACR1			LUA1			LElbow			LElbowM			LFA1			LWRR			LWRU			LCAR			RTH1			RTH3			RTH2			RTH4			RLFC			RMFC			RTB1			RTB3			RTB2			RTB4			RLMAL			RMMAL			RCAL			RMT1			RMT5			RToe			LTH1			LTH3			LTH2			LTH4			LLFC			LMFC			LTB1			LTB3			LTB2			LTB4			LLMAL			LMMAL			LCAL			LMT1			LMT5			LToe			
		X1	Y1	Z1	X2	Y2	Z2	X3	Y3	Z3	X4	Y4	Z4	X5	Y5	Z5	X6	Y6	Z6	X7	Y7	Z7	X8	Y8	Z8	X9	Y9	Z9	X10	Y10	Z10	X11	Y11	Z11	X12	Y12	Z12	X13	Y13	Z13	X14	Y14	Z14	X15	Y15	Z15	X16	Y16	Z16	X17	Y17	Z17	X18	Y18	Z18	X19	Y19	Z19	X20	Y20	Z20	X21	Y21	Z21	X22	Y22	Z22	X23	Y23	Z23	X24	Y24	Z24	X25	Y25	Z25	X26	Y26	Z26	X27	Y27	Z27	X28	Y28	Z28	X29	Y29	Z29	X30	Y30	Z30	X31	Y31	Z31	X32	Y32	Z32	X33	Y33	Z33	X34	Y34	Z34	X35	Y35	Z35	X36	Y36	Z36	X37	Y37	Z37	X38	Y38	Z38	X39	Y39	Z39	X40	Y40	Z40	X41	Y41	Z41	X42	Y42	Z42	X43	Y43	Z43	X44	Y44	Z44	X45	Y45	Z45	X46	Y46	Z46	X47	Y47	Z47	X48	Y48	Z48	X49	Y49	Z49	X50	Y50	Z50	X51	Y51	Z51	X52	Y52	Z52	X53	Y53	Z53	X54	Y54	Z54	X55	Y55	Z55	X56	Y56	Z56	X57	Y57	Z57	X58	Y58	Z58	X59	Y59	Z59	X60	Y60	Z60	X61	Y61	Z61	

505	2.520	-26.76665	-340.63251	1651.25110	54.31971	-343.82617	1656.23596	-58.74181	-516.14307	1600.45691	79.57490	-522.65723	1599.24805	8.97760	-530.11285	1455.40662	-8.82376	-559.16534	1134.73767	0.90966	-377.85345	1401.55029	-4.35839	-339.67856	1237.93872	91.18036	-591.28528	1354.94409	-158.22971	-359.43936	966.79266	146.47430	-367.92331	960.06641	-69.03780	-537.22754	977.34338	34.73703	-547.33136	976.73352	120.69902	-493.91327	1459.04419	290.95114	-479.59821	1414.57263	412.92184	-446.66309	1391.99890	394.94629	-380.51053	1335.50879	539.88702	-397.13907	1439.52820	646.12927	-301.96759	1495.93213	656.87933	-323.37622	1422.34473	712.00970	-308.94608	1466.17944	-132.77232	-501.29352	1464.86853	-312.13107	-482.13483	1414.99609	-426.56268	-445.81006	1389.57703	-395.03159	-407.41968	1330.01245	-554.40399	-391.62924	1465.93262	-637.59833	-307.96335	1507.64734	-656.69946	-313.29083	1430.76672	-708.48370	-316.61737	1492.47437	203.11281	-442.37552	764.95984	201.01906	-444.37219	575.84717	185.16986	-372.85425	671.69391	205.01601	-442.72549	667.94397	196.61443	-448.08905	472.03604	65.74670	-463.42908	439.17877	132.68845	-412.97659	369.54132	155.51051	-440.83505	182.23190	215.66641	-446.46973	287.09747	146.25003	-424.40338	278.20032	199.57138	-512.84570	88.43640	116.10112	-476.49030	92.25565	159.74805	-558.96509	35.02486	140.66820	-352.04520	38.64316	227.06245	-389.36948	33.59443	167.40802	-295.44452	26.15382	-210.50027	-409.37335	770.06915	-207.42712	-429.83633	583.33569	-174.97572	-353.14691	665.20831	-214.05740	-420.38675	672.51434	-203.99312	-452.68185	469.49823	-78.92149	-473.97675	435.37381	-160.08997	-420.32153	371.04800	-170.62083	-463.45755	190.13216	-228.47490	-476.55209	292.21698	-165.03528	-443.33826	280.91422	-204.54753	-547.41571	79.89512	-120.12511	-509.61075	85.83969	-160.17484	-593.80518	32.87756	-143.58090	-379.53519	35.97438	-233.15955	-413.22833	32.01413	-160.43346	-333.00739	26.87945 
506	2.525	-26.76164	-340.61060	1651.23975	54.30834	-343.78812	1656.21277	-58.72984	-516.08209	1600.45630	79.55470	-522.61670	1599.24451	8.95818	-530.10535	1455.41833	-8.75209	-559.50604	1134.68054	0.91721	-377.84784	1401.55493	-4.35585	-339.71082	1237.93872	91.14763	-591.26599	1354.94116	-158.24231	-359.43619	966.77924	146.48277	-367.92099	960.03528	-69.04297	-537.20813	977.34521	34.73376	-547.33246	976.71136	120.67588	-493.87845	1459.03638	290.94836	-479.59711	1414.56409	412.90921	-446.65436	1391.98926	394.94879	-380.50580	1335.47827	539.89362	-397.12732	1439.52026	646.05670	-301.95331	1495.95825	656.86176	-323.33850	1422.29919	711.98840	-308.90112	1466.14331	-132.77303	-501.28131	1464.86829	-312.11679	-482.07925	1414.97681	-426.59833	-445.79114	1389.58264	-395.05264	-407.47128	1330.03772	-554.40179	-391.61890	1465.90747	-637.61432	-307.91675	1507.59924	-656.71149	-313.27536	1430.75354	-708.47748	-316.58188	1492.42297	203.09001	-442.32913	764.94202	201.02394	-444.33826	575.79224	185.19368	-372.85019	671.70337	204.95045	-442.65570	667.83447	196.65758	-448.06677	472.05933	65.68082	-463.46237	439.14423	132.71503	-412.97571	369.52252	155.51854	-440.85217	182.23338	215.65292	-446.47217	287.09351	146.23627	-424.42447	278.19278	199.56569	-512.84436	88.45970	116.03466	-476.55786	92.27647	159.71916	-558.96698	35.00046	140.66747	-352.04163	38.61958	227.02568	-389.36737	33.60455	167.40012	-295.44922	26.16452	-210.45053	-409.38678	770.08160	-207.43045	-429.84241	583.35046	-174.97716	-353.13828	665.18219	-214.07768	-420.35876	672.50079	-203.97974	-452.63123	469.39526	-78.93051	-473.96948	435.36465	-160.10690	-420.31616	371.01788	-170.62212	-463.44373	190.14909	-228.47119	-476.56003	292.22589	-165.04761	-443.34305	280.92102	-204.53088	-547.41620	79.89017	-120.15656	-509.61121	85.82059	-160.18130	-593.82361	32.87067	-143.55940	-379.53336	35.98238	-233.06448	-413.18460	32.03873	-160.41782	-333.00229	26.87096 
507	2.530	-26.77433	-340.59961	1651.20935	54.29257	-343.73615	1656.20276	-58.72452	-516.01855	1600.46594	79.54063	-522.60187	1599.25500	8.93738	-530.05011	1455.42993	-8.81654	-559.42627	1134.71204	0.92734	-377.81564	1401.54346	-4.34047	-339.73911	1237.94055	91.13064	-591.25446	1354.95850	-158.22011	-359.42581	966.79724	146.30396	-367.95236	959.91205	-69.05901	-537.20117	977.34882	34.73222	-547.33990	976.70087	120.66788	-493.88809	1459.03760	290.94888	-479.59689	1414.56567	412.90656	-446.67194	1391.97339	394.96368	-380.50537	1335.45093	539.92358	-397.12225	1439.50085	646.08759	-301.95181	1495.88684	656.85535	-323.31204	1422.26379	711.96527	-308.86301	1466.10913	-132.80840	-501.25357	1464.87329	-312.09824	-482.05420	1414.97437	-426.65829	-445.81076	1389.56909	-395.11725	-407.54535	1330.07214	-554.39508	-391.57831	1465.89075	-637.62573	-307.83649	1507.56750	-656.70026	-313.22162	1430.72803	-708.47839	-316.56760	1492.41589	203.06340	-442.31827	764.93085	201.10632	-444.33344	575.74408	185.20959	-372.85428	671.70868	204.94804	-442.64517	667.85718	196.67192	-448.07050	472.06558	65.70502	-463.44370	439.13263	132.72958	-412.95853	369.49838	155.50423	-440.85687	182.21547	215.64633	-446.44427	287.10934	146.22374	-424.39975	278.17966	199.55966	-512.85931	88.46102	116.04186	-476.53860	92.27765	159.70860	-558.96460	34.99513	140.66464	-352.07550	38.63154	227.04698	-389.37714	33.60796	167.39377	-295.45038	26.17219	-210.46277	-409.37009	770.01361	-207.43626	-429.82828	583.34485	-174.97751	-353.10519	665.19885	-214.05235	-420.37369	672.53687	-203.92311	-452.67413	469.54605	-78.94804	-473.93561	435.37930	-160.10760	-420.30707	371.04684	-170.62953	-463.44464	190.13245	-228.46411	-476.53787	292.21909	-165.05075	-443.35315	280.90976	-204.53835	-547.42456	79.89246	-120.16394	-509.59616	85.77491	-160.20580	-593.85480	32.85799	-143.54419	-379.54663	35.95653	-233.08896	-413.18622	31.97248	-160.42316	-333.01010	26.86012 
508	2.535	-26.78602	-340.60214	1651.20496	54.28661	-343.71210	1656.20337	-58.72828	-516.01440	1600.46729	79.52261	-522.58942	1599.26453	8.94885	-530.03693	1455.42126	-8.87022	-559.21857	1134.73523	0.94677	-377.80618	1401.51575	-4.32005	-339.76102	1237.91077	91.14090	-591.25421	1354.94873	-158.25887	-359.41495	966.77789	146.13518	-367.97482	959.82153	-69.05923	-537.17633	977.35303	34.73151	-547.34570	976.70178	120.65833	-493.85489	1459.02197	290.95059	-479.59692	1414.56848	412.91837	-446.69080	1391.94434	395.02570	-380.51404	1335.38403	539.91412	-397.09717	1439.47900	646.12305	-301.95773	1495.83643	656.86743	-323.30997	1422.23206	711.92157	-308.83368	1466.05896	-132.83958	-501.24774	1464.87720	-312.10065	-482.04099	1414.95227	-426.68173	-445.77747	1389.51624	-395.19662	-407.66696	1330.08118	-554.39966	-391.52673	1465.85156	-637.62341	-307.80264	1507.52063	-656.68701	-313.17908	1430.70056	-708.48926	-316.55707	1492.40845	203.04175	-442.29532	764.92084	201.19968	-444.33276	575.74744	185.20587	-372.85599	671.72321	204.93213	-442.63190	667.84290	196.66490	-448.08292	472.05908	65.75901	-463.39346	439.14801	132.61113	-412.88687	369.41605	155.51854	-440.82773	182.23244	215.64145	-446.41330	287.10107	146.23705	-424.37311	278.17609	199.54692	-512.85950	88.44997	116.06863	-476.50064	92.28402	159.72821	-559.00183	35.00841	140.67444	-352.05838	38.63895	227.06227	-389.36462	33.58906	167.39919	-295.48181	26.13727	-210.48323	-409.35721	770.00195	-207.42126	-429.82935	583.31683	-174.99980	-353.08209	665.19586	-214.11380	-420.34430	672.51898	-203.95218	-452.62100	469.47729	-78.92920	-473.91412	435.39923	-160.12074	-420.29239	371.02432	-170.62910	-463.43918	190.12027	-228.48090	-476.52844	292.23917	-165.03415	-443.35669	280.91061	-204.51965	-547.41949	79.89639	-120.14691	-509.59116	85.76249	-160.22081	-593.84918	32.85046	-143.55118	-379.56845	35.96194	-233.03543	-413.16544	32.03994	-160.42871	-333.00870	26.85891 
509	2.540	-26.79676	-340.55713	1651.20947	54.29094	-343.66138	1656.19592	-58.73167	-515.96204	1600.44214	79.52420	-522.57135	1599.27014	8.93496	-530.03204	1455.43762	-8.86728	-559.07397	1134.72803	0.94525	-377.79172	1401.48596	-4.30097	-339.77621	1237.88501	91.14482	-591.25513	1354.95959	-158.27251	-359.42923	966.76849	146.25600	-367.90585	959.91370	-69.05383	-537.12653	977.31158	34.70995	-547.36035	976.70709	120.65067	-493.83084	1459.02747	290.95120	-479.59653	1414.56848	412.89719	-446.69064	1391.93469	395.04382	-380.53159	1335.37036	539.90265	-397.06042	1439.45117	646.12732	-301.95752	1495.82019	656.86548	-323.28333	1422.21460	711.90631	-308.81058	1466.02356	-132.84395	-501.25040	1464.87976	-312.07526	-482.02078	1414.93958	-426.67297	-445.74976	1389.49707	-395.29074	-407.79980	1330.07214	-554.40320	-391.51785	1465.81909	-637.64764	-307.73975	1507.46594	-656.67810	-313.10583	1430.66833	-708.50543	-316.56021	1492.39941	203.03009	-442.27963	764.91351	201.24583	-444.32315	575.79193	185.21677	-372.85504	671.71722	204.99658	-442.65817	667.93518	196.65282	-448.09097	472.05103	65.81293	-463.33643	439.15332	132.61940	-412.90485	369.47302	155.53108	-440.80579	182.25017	215.63655	-446.39838	287.08911	146.27161	-424.38040	278.18448	199.54089	-512.84717	88.45485	116.08849	-476.47986	92.29216	159.73479	-559.00751	35.02537	140.66292	-352.06570	38.64389	227.03606	-389.36826	33.57346	167.39903	-295.47083	26.14537	-210.46861	-409.32468	770.01221	-207.42250	-429.82257	583.32220	-174.97652	-353.08701	665.18829	-214.13879	-420.32840	672.51337	-203.98708	-452.56192	469.41077	-78.92291	-473.90546	435.38513	-160.16046	-420.28635	371.03696	-170.62346	-463.43704	190.13655	-228.47050	-476.51337	292.23404	-164.98943	-443.36121	280.90378	-204.52364	-547.41571	79.89979	-120.13162	-509.59921	85.80479	-160.22205	-593.85541	32.85268	-143.55536	-379.54190	35.97540	-233.08090	-413.18054	32.03817	-160.44685	-333.01868	26.87158 
